<svg width="676" height="676" xmlns="http://www.w3.org/2000/svg" data-name="Layer 1">

 <g>
  <title>Layer 1</title>
  <path id="svg_1" fill="#dfdfe4" d="m676,338a337.45265,337.45265 0 0 1 -17.85,108.68q-1.02008,3 -2.09,5.98a338.39278,338.39278 0 0 1 -53.77,96.05q-10.32,12.945 -21.87,24.82q-11.55,11.895 -24.25,22.63a336.248,336.248 0 0 1 -165.78,75.8l-0.01,0q-11.7,1.815 -23.63,2.83q-14.205,1.2 -28.75,1.21a336.94,336.94 0 0 1 -241.91,-101.95q-3.315,-3.39 -6.53,-6.88q-8.01,-8.685 -15.41,-17.91q-4.155,-5.19 -8.11,-10.54a336.714,336.714 0 0 1 -40.24,-70.98a332.25383,332.25383 0 0 1 -11.7,-32.84c-0.24,-0.79 -0.47,-1.57995 -0.7,-2.37q-0.75,-2.55 -1.45,-5.13a338.38,338.38 0 0 1 -11.95,-89.4c0,-186.67 151.33,-338 338,-338s338,151.33 338,338z"/>
  <path id="svg_2" fill="#a0616a" d="m143.34786,202.03191a22.02562,22.02562 0 0 0 22.026,25.603l53.95432,156.9927l34.42683,-23.66l-66.45864,-157.23711a22.145,22.145 0 0 0 -43.94851,-1.69859z"/>
  <path id="svg_3" fill="#cf566a" d="m424.95533,255.15c-23.96,27.26 -83.04,75.3 -131.71,108.38c-10.52,7.15 -20.56,13.59 -29.65,18.98c-6.14,3.64 -11.85,6.79 -16.99,9.36a27.99469,27.99469 0 0 1 -38.41,-14.5l-33.7,-81.53l11.66,-7.73005l28.75,-19.07l6.53,-4.32l26.96,64.21l28.43,-22.82l17.65,-14.17l80.46,-64.57l6.94,-2.06l16.19,15.8l11.44995,11.18l10.77,1.87c1.61005,0.27999 3.17005,0.61005 4.67005,0.99005z"/>
  <path id="svg_4" fill="#fff" d="m639.92,479.16222c1.67,2.12 3.4,4.23 5.13,6.35a335.12127,335.12127 0 0 1 -20.06,35.52q-0.825,-0.58492 -1.65,-1.17a2.12042,2.12042 0 0 1 -0.25,-0.16c-2.05,-1.46 -4.11005,-2.9 -6.16,-4.36l0,-0.01a70.003,70.003 0 0 1 -2.81,-17.7a5.288,5.288 0 0 0 1.23,-9.86005c-0.27,-0.47 -0.46,-0.81 -0.73,-1.29c0.01,-0.12 0.03,-0.25 0.04,-0.37c1.57,-12.48993 17.49,-16.84992 25.26,-6.94995z"/>
  <path id="svg_5" fill="#fff" d="m657.87,436.36223q1.8,4.95 3.28,10.01q-1.02008,3 -2.09,5.98q-0.405,-1.575 -0.84,-3.15a161.95685,161.95685 0 0 0 -5.85,-17.2q-2.79,-6.915 -6.18,-13.54a170.35651,170.35651 0 0 0 -51.96,-60.5a45.35,45.35 0 0 1 -23.43,-13.78a34.85779,34.85779 0 0 1 -5.57,-8.26c0.92,-0.13 1.84,-0.31 2.74,-0.5c0.28,-0.06 0.57,-0.13 0.85,-0.19l0.11,-0.02a5.24141,5.24141 0 0 0 1.85,-9.37994c-0.51,-0.37006 -1.03,-0.73 -1.54,-1.09c-0.78,-0.57 -1.57,-1.11 -2.36,-1.67a2.49231,2.49231 0 0 1 -0.24,-0.17c-0.9,-0.64 -1.8,-1.26 -2.69,-1.91a15.19516,15.19516 0 0 1 3.49,-5.96c5.59,-5.77 15.57,-5.63995 22.09,-0.94c6.53,4.7 9.81,12.93 10.23,20.95c0.37,6.87 -1.11,13.67 -3.06,20.3c0.49,0.36 1,0.7 1.49,1.07a171.32688,171.32688 0 0 1 24.86,22.51c-4.35,-10.32 -5.93,-23.78 -4.8,-33.05c1.29,-10.56 6.42,-20.59 10.62,-30.58c5.03,-12 22.19,-12.16 27.03,-0.08c0.05,0.12006 0.1,0.23 0.14,0.35q-1.215,1.215 -2.34,2.52a7.175,7.175 0 0 0 6.29,11.8l0.15,-0.02a72.09554,72.09554 0 0 1 1.06,10.79a73.50777,73.50777 0 0 1 -22.88,54.2c-0.48,0.45 -0.95,0.89 -1.44,1.32a170.65691,170.65691 0 0 1 12.45,20.67a172.4434,172.4434 0 0 1 8.54,19.51994z"/>
  <path id="svg_6" fill="#cf566a" d="m465.18537,342.54993l-3.02,207.41l-243.96,-7l38.96,-86c-0.28,-2.76 17.1,-22.13 17,-25c-0.3,-8.41 5.98,-16.2 7,-25c2.08,-18.15 -9.83,-86.69 -4.34,-100.85a96.26746,96.26746 0 0 1 8.94,-18.07995c3.12,-4.72 6.32,-7.9 9.38,-9.05l9.02,-21.02l8,-12l62.77,-18.59l6.94,-2.06l16.19,15.8l11.44995,11.18l10.77,1.87c1.61,0.28 3.17,0.61 4.67,0.99a47.44209,47.44209 0 0 1 19.66,9.74c18.80003,15.96994 20.99004,46.01002 20.57005,77.65995z"/>
  <path id="svg_7" fill="#ccc" d="m605.29,548.40221q-10.32,12.945 -21.87,24.82l-26.38,0.02l-141.87,0.16l-25.54,0.03l-16.98,0.02l-25.26,0.02l-19.43,0.02l-35.89,0.04l-21.17,0.03l-44.58,0.04l-21.28,0.03l-58.97,0.06l-37.04,0.04l-9.94,0.01q-3.315,-3.39 -6.53,-6.88q-8.01,-8.685 -15.41,-17.91l20.58,-0.02l14.02,-0.01l32.46,-0.04l62.64,-0.06l21.17,-0.02l8.56,-0.01l0.03,0l6.72,-0.01l3.01,-0.01l7.71,-0.01l3.26,0l22.86,-0.02l49.31,-0.06l21.7,-0.02l20.78,-0.02l19.48,-0.02l27.95,-0.03l149.28,-0.15l36.62,-0.04z"/>
  <path fill="#2f2e41" d="m267.76568,236.972l-0.05423,0.00519a10.92438,10.92438 0 0 1 -11.88954,-9.86522l-5.68685,-60.69949a81.4729,81.4729 0 0 1 3.43327,-32.25755a82.78683,82.78683 0 0 1 39.2298,-47.5915a81.52038,81.52038 0 0 1 31.25114,-9.55739c44.81954,-4.27 61.19851,5.06459 88.88453,73.42136s5.69552,60.792 5.69552,60.792a10.9425,10.9425 0 0 1 -0.46267,4.3394a11.12143,11.12143 0 0 1 -5.28534,6.39312a10.97834,10.97834 0 0 1 -4.17872,1.27664c-52.98637,13.46844 -106.45159,27.64568 -140.94594,13.74424l0.00903,-0.0008z" data-name="Path 9" id="bfd9c2c3-21db-4bc8-8976-94586a21de42-33"/>
  <path fill="#9e616a" d="m366.38742,134.52082a60.09533,60.09533 0 0 1 -61.11262,92.67038a59.3953,59.3953 0 0 1 -38.24149,-25.1652a60.09533,60.09533 0 0 1 61.06736,-92.64339a59.39528,59.39528 0 0 1 38.287,25.14046l-0.00025,-0.00225z" data-name="Ellipse 1" id="acce586e-6e96-4eff-b112-6c9d74172e69-34"/>
  <path fill="#2f2e41" d="m231.34592,173.156a64.45,64.45 0 0 1 2.71593,-25.51192c0.60421,-20.14719 6.44962,-38.39572 31.02261,-37.62977a64.479,64.479 0 0 1 24.55165,-7.53375l12.14321,-1.19912q0.20457,-0.02036 0.40925,-0.0394a64.34091,64.34091 0 0 1 70.02643,58.10176l0.11391,1.21579l-25.69113,2.51164l-11.057,-23.66179l0.54556,24.69437l-13.269,1.30231l-5.57605,-11.93793l0.27223,12.45078c-19.7014,17.3515 -49.57632,18.261 -86.08219,8.454l-0.12541,-1.21697z" data-name="Path 10" id="af1db401-16c9-4940-bbbf-8b9ef63e1952-35"/>
  <path fill="#2f2e41" d="m313.525,230.75525a10.75,10.75 0 0 0 1.00164,5.83369a10.99444,10.99444 0 0 0 1.68713,2.56109a11.12123,11.12123 0 0 0 1.95644,1.744a10.906,10.906 0 0 0 7.29595,1.90363q0.24116,-0.02487 0.48144,-0.05876t0.47954,-0.079q0.24171,-0.04313 0.4799,-0.09957t0.47778,-0.12213l8.96651,-2.51251l10.04915,-28.01931l2.30348,24.58657l40.77284,-11.35169l-9.775,-104.335l-69.49455,6.84762l1.90583,1.83522a48.02908,48.02908 0 0 1 13.03169,22.51654a78.292,78.292 0 0 1 1.98341,26.56205a141.18475,141.18475 0 0 1 -4.977,26.58842a208.08,208.08 0 0 1 -7.85514,22.63256a10.97921,10.97921 0 0 0 -0.77104,2.96658z" data-name="Path 13" id="a1e66597-148d-4736-b39c-00184f281162-36"/>
  <path id="svg_8" fill="#3f3d56" d="m322.79172,559.70909a8.06043,8.06043 0 0 1 -3.45355,-0.78079l-192.51981,4.91161a8.07967,8.07967 0 0 1 1.15008,-15.04471l125.95184,-37.55507a8.07907,8.07907 0 0 1 4.016,-0.15366l194.82612,23.74623a8.07944,8.07944 0 0 1 0.9262,15.53535l-128.25875,8.89657a8.09091,8.09091 0 0 1 -2.63813,0.44447z"/>
  <path id="svg_9" fill="#2f2e41" d="m329.8725,546.30727a5.08458,5.08458 0 0 1 -2.48316,-0.64626l-156.35414,7.30456a5.06832,5.06832 0 0 1 1.2833,-9.34574l56.60364,-13.73834a5.08357,5.08357 0 0 1 2.67737,0.07847l145.35352,-0.17464a5.06856,5.06856 0 0 1 0.034,9.68272l-45.60237,6.60842a5.05818,5.05818 0 0 1 -1.51216,0.23081z"/>
  <path id="svg_10" fill="#a0616a" d="m313.4148,537.97366a22.0256,22.0256 0 0 0 32.255,-10.0137l165.49554,13l-8,-41l-170.69748,-1.62639a22.145,22.145 0 0 0 -19.05307,39.64009l0.00001,0z"/>
  <path id="svg_11" fill="#cf566a" d="m411.16535,270.96s25,-20 55,16c20.23163,24.27795 59.25937,171.04436 62.49515,231.86245a27.98225,27.98225 0 0 1 -28.58436,29.46048l-88.21089,-1.53521l-9.86388,-55.45l69.64346,0.82467l-60.47948,-221.16239z"/>
  <path id="svg_12" fill="#3f3d56" d="m312.084,559.73152a22.73939,22.73939 0 0 1 -8.81026,-1.78381l-178.442,4.07146a22.67533,22.67533 0 0 1 -13.651,-24.58235l-6.63053,-156.71135a22.64167,22.64167 0 0 1 23.9351,-19.07363l165.66312,6.871a22.73879,22.73879 0 0 1 20.9224,26.54357l19.40943,145.76859a22.77479,22.77479 0 0 1 -22.39626,18.89652z"/>
  <path id="svg_13" fill="#dfe4ee" d="m176.58534,93.16992l-74.47,-0.21a7.54113,7.54113 0 0 0 -7.55,7.51l-0.27,98.61a7.52409,7.52409 0 0 0 7.5,7.54l41.31,0.12l33.17,0.09a7.52625,7.52625 0 0 0 7.54,-7.51l0.02,-5.83l0.26,-92.77a7.53481,7.53481 0 0 0 -7.51,-7.55z"/>
  <path id="svg_14" fill="#fff" d="m171.33534,99.05994l-64,-0.18a7.06116,7.06116 0 0 0 -7.07,7.03l-0.18,63.4a31.44293,31.44293 0 0 0 31.32,31.49l12.16,0.03l27.49,0.08a7.05471,7.05471 0 0 0 7.07,-7.03l0.01995,-6.38l0.22,-81.37a7.05467,7.05467 0 0 0 -7.02995,-7.07z"/>
  <path id="svg_15" fill="#cf566a" d="m164.14533,142.37994l-49.9,0a2.995,2.995 0 1 0 0,5.99l49.9,0a2.995,2.995 0 0 0 0,-5.99z"/>
  <path id="svg_16" fill="#cf566a" d="m125.21534,125.96l-10.97,0a2.995,2.995 0 1 0 0,5.99l10.97,0a2.995,2.995 0 1 0 0,-5.99z"/>
  <path id="svg_17" fill="#cf566a" d="m164.14533,168.71l-49.9,0a2.995,2.995 0 1 0 0,5.99l49.9,0a2.995,2.995 0 0 0 0,-5.99z"/>
  <path id="svg_18" fill="#cf566a" d="m164.14533,155.54993l-49.9,0a2.99,2.99 0 1 0 0,5.98l49.9,0a2.99,2.99 0 0 0 0,-5.98z"/>
  <path id="svg_19" fill="#cf566a" d="m154.449,136.55039a17.71641,17.71641 0 1 1 17.7164,-17.71641a17.7366,17.7366 0 0 1 -17.7164,17.71641zm0,-34.20164a16.48524,16.48524 0 1 0 16.48518,16.48525a16.504,16.504 0 0 0 -16.48518,-16.48525z"/>
  <path id="svg_20" fill="#cf566a" d="m161.8894,125.69619a45.54536,45.54536 0 0 0 -7.47817,-17.56611a0.93517,0.93517 0 0 0 -1.59461,0a48.64681,48.64681 0 0 0 -6.06688,18.33571c-0.14352,1.177 1.70451,1.16666 1.84676,0a45.51962,45.51962 0 0 1 1.21062,-6.2a1.05464,1.05464 0 0 0 0.20631,-0.06316a13.45936,13.45936 0 0 1 7.94981,-1.29459c0.02367,0.00353 0.04652,-0.00162 0.07019,0.00068a44.28492,44.28492 0 0 1 2.07519,7.27843c0.22525,1.16568 2.00554,0.67213 1.78078,-0.49096zm-11.41755,-7.69519a46.74284,46.74284 0 0 1 3.22475,-7.61812a44.26573,44.26573 0 0 1 3.56581,6.61182a15.57647,15.57647 0 0 0 -6.79056,1.0063z"/>
 </g>
</svg>